<mxfile host="app.diagrams.net" agent="Mozilla/5.0 (Macintosh; Intel Mac OS X 10_15_7) AppleWebKit/537.36 (KHTML, like Gecko) Chrome/133.0.0.0 Safari/537.36" version="26.0.16">
  <diagram id="C5RBs43oDa-KdzZeNtuy" name="Page-1">
    <mxGraphModel dx="1103" dy="536" grid="1" gridSize="10" guides="1" tooltips="1" connect="1" arrows="1" fold="1" page="1" pageScale="1" pageWidth="827" pageHeight="1169" math="0" shadow="0">
      <root>
        <mxCell id="WIyWlLk6GJQsqaUBKTNV-0" />
        <mxCell id="WIyWlLk6GJQsqaUBKTNV-1" parent="WIyWlLk6GJQsqaUBKTNV-0" />
        <mxCell id="3wZgYCBfIfFk7G_CHo2h-31" value="" style="rounded=0;whiteSpace=wrap;html=1;fillColor=#f5f5f5;fontColor=#333333;strokeColor=#666666;strokeWidth=0;" vertex="1" parent="WIyWlLk6GJQsqaUBKTNV-1">
          <mxGeometry x="265" y="279" width="134" height="200" as="geometry" />
        </mxCell>
        <mxCell id="3wZgYCBfIfFk7G_CHo2h-7" value="" style="rounded=0;whiteSpace=wrap;html=1;fillColor=#f5f5f5;fontColor=#333333;strokeColor=#666666;strokeWidth=0;" vertex="1" parent="WIyWlLk6GJQsqaUBKTNV-1">
          <mxGeometry x="499" y="279" width="140" height="200" as="geometry" />
        </mxCell>
        <mxCell id="3wZgYCBfIfFk7G_CHo2h-2" value="fastapi" style="rounded=0;whiteSpace=wrap;html=1;fillColor=#d5e8d4;strokeColor=none;glass=0;shadow=0;" vertex="1" parent="WIyWlLk6GJQsqaUBKTNV-1">
          <mxGeometry x="520" y="334" width="100" height="30" as="geometry" />
        </mxCell>
        <mxCell id="3wZgYCBfIfFk7G_CHo2h-4" value="deepseek" style="rounded=0;whiteSpace=wrap;html=1;fillColor=#e1d5e7;strokeColor=none;glass=0;shadow=0;" vertex="1" parent="WIyWlLk6GJQsqaUBKTNV-1">
          <mxGeometry x="520" y="409" width="100" height="40" as="geometry" />
        </mxCell>
        <mxCell id="3wZgYCBfIfFk7G_CHo2h-13" value="&lt;h2 style=&quot;margin-top: 0px;&quot;&gt;&lt;font face=&quot;Verdana&quot;&gt;serving&lt;/font&gt;&lt;/h2&gt;" style="text;html=1;whiteSpace=wrap;overflow=hidden;rounded=0;align=center;" vertex="1" parent="WIyWlLk6GJQsqaUBKTNV-1">
          <mxGeometry x="524" y="279" width="90" height="30" as="geometry" />
        </mxCell>
        <mxCell id="3wZgYCBfIfFk7G_CHo2h-15" value="" style="shape=actor;whiteSpace=wrap;html=1;fillColor=#f8cecc;strokeColor=#b85450;strokeWidth=0;" vertex="1" parent="WIyWlLk6GJQsqaUBKTNV-1">
          <mxGeometry x="129" y="359" width="30" height="40" as="geometry" />
        </mxCell>
        <mxCell id="3wZgYCBfIfFk7G_CHo2h-25" value="" style="edgeStyle=orthogonalEdgeStyle;rounded=0;orthogonalLoop=1;jettySize=auto;html=1;" edge="1" parent="WIyWlLk6GJQsqaUBKTNV-1" source="3wZgYCBfIfFk7G_CHo2h-18" target="3wZgYCBfIfFk7G_CHo2h-24">
          <mxGeometry relative="1" as="geometry" />
        </mxCell>
        <mxCell id="3wZgYCBfIfFk7G_CHo2h-18" value="语音模块" style="rounded=0;whiteSpace=wrap;html=1;fillColor=#dae8fc;strokeColor=#6c8ebf;strokeWidth=0;" vertex="1" parent="WIyWlLk6GJQsqaUBKTNV-1">
          <mxGeometry x="289" y="320" width="80" height="30" as="geometry" />
        </mxCell>
        <mxCell id="3wZgYCBfIfFk7G_CHo2h-20" value="" style="endArrow=classic;startArrow=classic;html=1;rounded=0;" edge="1" parent="WIyWlLk6GJQsqaUBKTNV-1" source="3wZgYCBfIfFk7G_CHo2h-4">
          <mxGeometry width="50" height="50" relative="1" as="geometry">
            <mxPoint x="519" y="414" as="sourcePoint" />
            <mxPoint x="569" y="364" as="targetPoint" />
          </mxGeometry>
        </mxCell>
        <mxCell id="3wZgYCBfIfFk7G_CHo2h-21" value="处理" style="edgeLabel;html=1;align=center;verticalAlign=middle;resizable=0;points=[];" vertex="1" connectable="0" parent="3wZgYCBfIfFk7G_CHo2h-20">
          <mxGeometry x="0.0017" y="-1" relative="1" as="geometry">
            <mxPoint as="offset" />
          </mxGeometry>
        </mxCell>
        <mxCell id="3wZgYCBfIfFk7G_CHo2h-22" value="喇叭模块" style="rounded=0;whiteSpace=wrap;html=1;fillColor=#f8cecc;strokeColor=#b85450;strokeWidth=0;" vertex="1" parent="WIyWlLk6GJQsqaUBKTNV-1">
          <mxGeometry x="289" y="429" width="80" height="30" as="geometry" />
        </mxCell>
        <mxCell id="3wZgYCBfIfFk7G_CHo2h-24" value="esp8266" style="rounded=0;whiteSpace=wrap;html=1;fillColor=#fff2cc;strokeColor=#d6b656;strokeWidth=0;" vertex="1" parent="WIyWlLk6GJQsqaUBKTNV-1">
          <mxGeometry x="289" y="375" width="80" height="30" as="geometry" />
        </mxCell>
        <mxCell id="3wZgYCBfIfFk7G_CHo2h-27" value="" style="endArrow=classic;startArrow=classic;html=1;rounded=0;entryX=0;entryY=0.5;entryDx=0;entryDy=0;exitX=1;exitY=0.5;exitDx=0;exitDy=0;" edge="1" parent="WIyWlLk6GJQsqaUBKTNV-1" source="3wZgYCBfIfFk7G_CHo2h-31" target="3wZgYCBfIfFk7G_CHo2h-7">
          <mxGeometry width="50" height="50" relative="1" as="geometry">
            <mxPoint x="400" y="382" as="sourcePoint" />
            <mxPoint x="560" y="364.9999999999999" as="targetPoint" />
            <Array as="points" />
          </mxGeometry>
        </mxCell>
        <mxCell id="3wZgYCBfIfFk7G_CHo2h-38" value="请求/接受" style="edgeLabel;html=1;align=center;verticalAlign=middle;resizable=0;points=[];" vertex="1" connectable="0" parent="3wZgYCBfIfFk7G_CHo2h-27">
          <mxGeometry x="0.042" y="-2" relative="1" as="geometry">
            <mxPoint as="offset" />
          </mxGeometry>
        </mxCell>
        <mxCell id="3wZgYCBfIfFk7G_CHo2h-28" value="" style="endArrow=classic;html=1;rounded=0;exitX=0.5;exitY=1;exitDx=0;exitDy=0;entryX=0.5;entryY=0;entryDx=0;entryDy=0;" edge="1" parent="WIyWlLk6GJQsqaUBKTNV-1" source="3wZgYCBfIfFk7G_CHo2h-24" target="3wZgYCBfIfFk7G_CHo2h-22">
          <mxGeometry width="50" height="50" relative="1" as="geometry">
            <mxPoint x="340" y="460" as="sourcePoint" />
            <mxPoint x="560" y="440" as="targetPoint" />
          </mxGeometry>
        </mxCell>
        <mxCell id="3wZgYCBfIfFk7G_CHo2h-35" value="" style="endArrow=classic;startArrow=classic;html=1;rounded=0;entryX=0;entryY=0.5;entryDx=0;entryDy=0;exitX=0.9;exitY=0.5;exitDx=0;exitDy=0;exitPerimeter=0;" edge="1" parent="WIyWlLk6GJQsqaUBKTNV-1" source="3wZgYCBfIfFk7G_CHo2h-15" target="3wZgYCBfIfFk7G_CHo2h-31">
          <mxGeometry width="50" height="50" relative="1" as="geometry">
            <mxPoint x="203" y="414" as="sourcePoint" />
            <mxPoint x="253" y="364" as="targetPoint" />
          </mxGeometry>
        </mxCell>
        <mxCell id="3wZgYCBfIfFk7G_CHo2h-36" value="&lt;font style=&quot;font-size: 5px;&quot; face=&quot;Helvetica&quot;&gt;输入/输出&lt;/font&gt;" style="edgeLabel;html=1;align=center;verticalAlign=middle;resizable=0;points=[];" vertex="1" connectable="0" parent="3wZgYCBfIfFk7G_CHo2h-35">
          <mxGeometry x="-0.0009" y="-3" relative="1" as="geometry">
            <mxPoint as="offset" />
          </mxGeometry>
        </mxCell>
        <mxCell id="3wZgYCBfIfFk7G_CHo2h-37" value="输入/输出" style="edgeLabel;html=1;align=center;verticalAlign=middle;resizable=0;points=[];" vertex="1" connectable="0" parent="3wZgYCBfIfFk7G_CHo2h-35">
          <mxGeometry x="-0.0016" y="-4" relative="1" as="geometry">
            <mxPoint y="-3" as="offset" />
          </mxGeometry>
        </mxCell>
        <mxCell id="3wZgYCBfIfFk7G_CHo2h-39" value="&lt;h2 style=&quot;margin-top: 0px;&quot;&gt;&lt;font face=&quot;Verdana&quot;&gt;term&lt;/font&gt;&lt;/h2&gt;" style="text;html=1;whiteSpace=wrap;overflow=hidden;rounded=0;align=center;" vertex="1" parent="WIyWlLk6GJQsqaUBKTNV-1">
          <mxGeometry x="289" y="279" width="90" height="30" as="geometry" />
        </mxCell>
      </root>
    </mxGraphModel>
  </diagram>
</mxfile>
